<svg width="173" height="254" viewBox="0 0 173 254" fill="none" xmlns="http://www.w3.org/2000/svg">
    <g filter="url(#filter0_d_2_11)">
        <path d="M74.1591 201.5V65.1364H95.1108V201.5H74.1591ZM84.8125 42.4091C80.7287 42.4091 77.2071 41.0182 74.2479 38.2365C71.3478 35.4548 69.8977 32.1108 69.8977 28.2045C69.8977 24.2983 71.3478 20.9543 74.2479 18.1726C77.2071 15.3909 80.7287 14 84.8125 14C88.8963 14 92.3883 15.3909 95.2884 18.1726C98.2476 20.9543 99.7273 24.2983 99.7273 28.2045C99.7273 32.1108 98.2476 35.4548 95.2884 38.2365C92.3883 41.0182 88.8963 42.4091 84.8125 42.4091Z" fill="#2E2E37"/>
        <path d="M74.108 239.5H18V57.6818H76.5938C94.2311 57.6818 109.323 61.3217 121.871 68.6016C134.418 75.8222 144.036 86.2093 150.724 99.7628C157.412 113.257 160.756 129.415 160.756 148.236C160.756 167.175 157.382 183.481 150.635 197.153C143.888 210.765 134.063 221.241 121.161 228.58C108.258 235.86 92.5739 239.5 74.108 239.5ZM40.017 219.969H72.6875C87.7206 219.969 100.179 217.069 110.063 211.268C119.947 205.468 127.316 197.212 132.169 186.499C137.022 175.787 139.449 163.032 139.449 148.236C139.449 133.558 137.052 120.922 132.258 110.327C127.464 99.674 120.302 91.5064 110.773 85.8246C101.245 80.0836 89.3778 77.2131 75.1733 77.2131H40.017V219.969Z" fill="#2E2E37"/>
        <path d="M68.1591 201.5V207.5H74.1591H95.1108H101.111V201.5V87.6893C103.444 88.6377 105.631 89.731 107.677 90.9639L107.689 90.971L107.701 90.978C116.115 95.9953 122.469 103.195 126.786 112.79L126.791 112.801C131.154 122.442 133.449 134.194 133.449 148.236C133.449 162.392 131.126 174.262 126.704 184.023C122.348 193.639 115.812 200.938 107.027 206.094C98.3075 211.21 86.9771 213.969 72.6875 213.969H46.017V83.2131H68.1591V201.5ZM70.0945 42.5666L70.1164 42.5875L70.1384 42.6083C74.2172 46.4423 79.2109 48.4091 84.8125 48.4091C90.4062 48.4091 95.3864 46.4462 99.42 42.5874C103.517 38.7257 105.727 33.8291 105.727 28.2045C105.727 22.58 103.517 17.6833 99.4198 13.8215C95.3863 9.96281 90.4062 8 84.8125 8C79.211 8 74.2172 9.96675 70.1384 13.8008L70.1164 13.8215L70.0945 13.8425C66.0529 17.7191 63.8977 22.6115 63.8977 28.2045C63.8977 33.7976 66.0529 38.69 70.0945 42.5666ZM12 239.5V245.5H18H74.108C93.3556 245.5 110.111 241.704 124.109 233.806L124.118 233.801L124.127 233.796C138.095 225.851 148.746 214.474 156.011 199.817L156.015 199.808C163.257 185.135 166.756 167.878 166.756 148.236C166.756 128.717 163.288 111.603 156.101 97.1001C148.913 82.5368 138.49 71.2455 124.872 63.4064C111.234 55.4959 95.0567 51.6818 76.5938 51.6818H18H12V57.6818V239.5Z" stroke="#FBFEF9" stroke-width="12"/>
    </g>
    <defs>
        <filter id="filter0_d_2_11" x="0" y="0" width="172.756" height="253.5" filterUnits="userSpaceOnUse" color-interpolation-filters="sRGB">
            <feFlood flood-opacity="0" result="BackgroundImageFix"/>
            <feColorMatrix in="SourceAlpha" type="matrix" values="0 0 0 0 0 0 0 0 0 0 0 0 0 0 0 0 0 0 127 0" result="hardAlpha"/>
            <feOffset dx="-4"/>
            <feGaussianBlur stdDeviation="1"/>
            <feComposite in2="hardAlpha" operator="out"/>
            <feColorMatrix type="matrix" values="0 0 0 0 0.913333 0 0 0 0 1 0 0 0 0 0.566667 0 0 0 1 0"/>
            <feBlend mode="normal" in2="BackgroundImageFix" result="effect1_dropShadow_2_11"/>
            <feBlend mode="normal" in="SourceGraphic" in2="effect1_dropShadow_2_11" result="shape"/>
        </filter>
    </defs>
</svg>
